<svg xmlns="http://www.w3.org/2000/svg" viewBox="0 0 64 64">
  <defs>
    <linearGradient id="bg" x1="0" x2="1" y1="0" y2="1">
      <stop offset="0" stop-color="#23101a"/>
      <stop offset="1" stop-color="#4c2435"/>
    </linearGradient>
    <linearGradient id="paper" x1="0" x2="1" y1="0" y2="1">
      <stop offset="0" stop-color="#fff4e3"/>
      <stop offset="1" stop-color="#d9a780"/>
    </linearGradient>
    <linearGradient id="seal" x1="0" x2="1" y1="0" y2="1">
      <stop offset="0" stop-color="#d83a56"/>
      <stop offset="1" stop-color="#82132a"/>
    </linearGradient>
  </defs>
  <rect width="64" height="64" rx="16" fill="url(#bg)"/>
  <path d="M9 22h46v29H9z" fill="url(#paper)"/>
  <path d="M9 22l23 18L55 22" fill="none" stroke="#8d5d4a" stroke-width="3" stroke-linejoin="round"/>
  <path d="M9 51l18-16m28 16L37 35" fill="none" stroke="#8d5d4a" stroke-width="3" stroke-linecap="round"/>
  <circle cx="32" cy="39" r="8" fill="url(#seal)"/>
  <path d="M32 44s-7-4.2-7-8.1c0-2 1.5-3.5 3.4-3.5 1.3 0 2.5.8 3.1 1.9.7-1.1 1.8-1.9 3.1-1.9 1.9 0 3.4 1.5 3.4 3.5 0 3.9-6 8.1-6 8.1z" fill="#ffe6eb"/>
</svg>
